<?xml version="1.0" encoding="UTF-8"?>
<svg width="284px" height="418px" viewBox="0 0 284 418" version="1.1" xmlns="http://www.w3.org/2000/svg" xmlns:xlink="http://www.w3.org/1999/xlink">
    <title>fist</title>
    <g id="fist" stroke="none" stroke-width="1" fill="none" fill-rule="evenodd">
        <path d="M283.289,133.036 C283.042,127.398 280.946,122.356 278.718,117.749 C275.443,110.973 271.645,104.375 267.431,98.139 C266.703,97.061 266.21,96.167 265.688,95.22 C264.204,92.529 262.523,89.479 257.445,86.486 C254.399,84.69 251.11,83.599 247.839,83.191 C248.037,81.212 248.086,79.19 247.914,77.131 C247.185,68.399 243.114,59.767 236.743,53.447 C235.426,52.14 234.259,50.934 233.13,49.767 C227.486,43.933 223.027,39.324 212.316,35.645 C210.142,34.898 206.357,34.236 196.319,35.763 C196.222,35.778 196.131,35.792 196.035,35.807 C195.386,30.348 193.493,24.029 188.302,19.542 C184.258,16.046 179.465,14.73 175.613,13.674 L156.486,8.426 C151.828,7.147 146.031,5.559 139.861,6.515 C133.302,7.533 128.051,11.056 123.659,15.309 C119.968,9.908 115.991,5.779 112.511,3.881 C103.756,-0.895 74.342,-3.151 58.684,11.015 C56.619,12.883 54.235,16.188 50.555,21.408 C48.663,24.091 45.805,28.146 44.819,29.072 C43.824,30 42.628,30.91 41.362,31.874 C40.084,32.846 38.762,33.852 37.437,35.026 C28.373,43.062 23.116,55.45 21.813,71.848 C21.408,76.936 21.365,82.002 21.323,86.901 C21.264,93.783 21.208,100.283 20.22,106.621 C19.624,110.438 17.671,113.166 14.714,117.293 C10.928,122.579 6.215,129.156 2.649,140.568 L3.125,140.716 C-1.01,151.272 -0.958,160.99 2.786,171.006 C3.593,173.163 4.605,175.17 5.727,177.082 C18.598,206.072 21.256,225.047 27.848,241.802 C31.339,250.674 35.163,258.289 39.572,265.987 C43.877,273.504 48.439,279.471 53.117,284.164 C52.489,286.814 52.431,289.846 53.21,293.17 C53.918,296.186 55.132,298.822 56.204,301.147 C56.855,302.561 57.47,303.896 57.893,305.14 C59.179,308.926 59.227,313.389 59.159,318.407 C58.948,333.911 55.973,373.535 54.005,399.755 C53.494,406.555 53.045,412.535 52.726,417.01 L228.53,417.01 C228.471,371.012 227.993,341.024 227.574,319.77 L227.557,318.9 C227.393,310.502 227.27,304.212 225.468,298.436 C234.379,294.873 242.416,286.535 249.108,273.776 C261.856,249.473 268.89,220.946 270.485,186.932 C271.875,185.042 272.735,183.076 273.407,181.522 C274.928,178.002 276.652,174.014 277.235,169.426 C277.785,165.087 277.122,160.895 275.406,157.391 C276.077,156.11 276.756,154.831 277.412,153.544 C280.57,147.357 283.625,140.678 283.289,133.036 Z" id="Fill-60" fill="#0A0B09"></path>
        <path d="M283.289,133.036 C283.042,127.398 280.946,122.356 278.718,117.749 C275.443,110.973 271.645,104.375 267.431,98.139 C266.703,97.061 266.21,96.167 265.688,95.22 C264.204,92.529 262.523,89.479 257.445,86.486 C254.399,84.69 251.11,83.599 247.839,83.191 C248.037,81.212 248.086,79.19 247.914,77.131 C247.185,68.399 243.114,59.767 236.743,53.447 C235.426,52.14 234.259,50.934 233.13,49.767 C227.486,43.933 223.027,39.324 212.316,35.645 C210.142,34.898 206.357,34.236 196.319,35.763 C196.222,35.778 196.131,35.792 196.035,35.807 C195.386,30.348 193.493,24.029 188.302,19.542 C184.258,16.046 179.465,14.73 175.613,13.674 L156.486,8.426 C151.828,7.147 146.031,5.559 139.861,6.515 C133.302,7.533 128.051,11.056 123.659,15.309 C119.968,9.908 115.991,5.779 112.511,3.881 C103.756,-0.895 74.342,-3.151 58.684,11.015 C56.619,12.883 54.235,16.188 50.555,21.408 C48.663,24.091 45.805,28.146 44.819,29.072 C43.824,30 42.628,30.91 41.362,31.874 C40.084,32.846 38.762,33.852 37.437,35.026 C28.373,43.062 23.116,55.45 21.813,71.848 C21.408,76.936 21.365,82.002 21.323,86.901 C21.264,93.783 21.208,100.283 20.22,106.621 C19.624,110.438 17.671,113.166 14.714,117.293 C10.928,122.579 6.215,129.156 2.649,140.568 L3.125,140.716 C-1.01,151.272 -0.958,160.99 2.786,171.006 C3.593,173.163 4.605,175.17 5.727,177.082 C18.598,206.072 21.256,225.047 27.848,241.802 C31.339,250.674 35.163,258.289 39.572,265.987 C43.877,273.504 48.439,279.471 53.117,284.164 C52.489,286.814 52.431,289.846 53.21,293.17 C53.918,296.186 55.132,298.822 56.204,301.147 C56.855,302.561 57.47,303.896 57.893,305.14 C59.179,308.926 59.227,313.389 59.159,318.407 C58.948,333.911 55.973,373.535 54.005,399.755 C53.494,406.555 53.045,412.535 52.726,417.01 L228.53,417.01 C228.471,371.012 227.993,341.024 227.574,319.77 L227.557,318.9 C227.393,310.502 227.27,304.212 225.468,298.436 C234.379,294.873 242.416,286.535 249.108,273.776 C261.856,249.473 268.89,220.946 270.485,186.932 C271.875,185.042 272.735,183.076 273.407,181.522 C274.928,178.002 276.652,174.014 277.235,169.426 C277.785,165.087 277.122,160.895 275.406,157.391 C276.077,156.11 276.756,154.831 277.412,153.544 C280.57,147.357 283.625,140.678 283.289,133.036 Z" id="Fill-60" fill="#0A0B09"></path>
        <path d="M161.839,47.93 C164.804,46.848 167.87,45.729 171.052,44.806 C172.468,44.395 175.413,43.54 178.727,44.549 C179.736,44.856 180.609,45.298 181.38,45.784 L181.538,45.206 C181.551,44.849 181.572,44.489 181.583,44.132 C181.744,39.173 181.558,33.161 178.679,30.673 C177.154,29.354 174.391,28.596 171.72,27.863 L152.593,22.615 C148.947,21.614 145.179,20.581 142.118,21.054 C138.058,21.685 134.309,25.128 131.035,28.928 C133.621,35.036 136.024,42.778 136.864,51.604 C139.913,52.098 142.856,52.399 145.696,52.228 C150.925,51.913 156.226,49.978 161.839,47.93 Z" id="Fill-62" fill="#C7C6C1"></path>
        <path d="M175.264,146.863 C169.219,156.217 158.214,158.755 149.303,159.922 C143.844,160.637 138.347,161.101 132.84,161.326 C138.339,164.549 142.985,169.229 147.036,173.813 C148.465,175.429 149.877,177.068 151.273,178.725 C162.38,178.315 173.322,176.251 183.826,172.575 C187.318,171.354 191.263,169.775 194.046,167.333 C197.853,163.991 201.045,159.184 204.093,152.207 C208.758,141.526 212.538,133.342 215.873,126.121 C220.843,115.357 224.769,106.856 229.244,95.272 C231.435,89.601 233.701,83.736 233.252,78.355 C232.809,73.057 230.305,67.786 226.38,63.892 C224.957,62.479 223.681,61.161 222.555,59.998 C217.5,54.772 214.944,52.13 207.695,49.615 C205.805,49.287 200.398,49.962 196.017,50.712 C195.743,55.716 195.338,60.733 194.794,65.695 L194.628,65.677 C197.005,72.436 197.908,79.777 197.425,88.031 C197.583,90.515 197.313,93.055 196.643,95.551 C196.619,95.716 196.598,95.879 196.573,96.045 L196.502,96.034 C195.261,100.321 192.861,104.454 189.447,107.907 C188.675,108.688 187.868,109.417 187.039,110.108 C186.334,115.76 183.093,127.151 178.563,139.803 C177.748,142.079 176.784,144.51 175.264,146.863" id="Fill-63" fill="#C7C6C1"></path>
        <path d="M162.906,138.877 C163.616,137.778 164.194,136.288 164.711,134.842 C166.884,128.775 168.546,123.597 169.766,119.422 C159.666,123.347 149.161,126.314 138.501,128.226 C136.207,128.636 133.644,129.041 130.929,129.041 C130.297,129.041 129.657,129.018 129.01,128.969 C128.085,134.001 125.93,139.943 122.574,146.738 C130.868,146.869 139.175,146.409 147.393,145.333 C152.711,144.637 160.106,143.21 162.906,138.877" id="Fill-64" fill="#C7C6C1"></path>
        <path d="M46.112,87.841 C49.879,83.906 53.484,79.977 56.858,75.89 C53.734,64.475 56.462,51.401 64.494,42.621 C63.478,49.631 64.435,56.896 67.117,63.448 C69.426,60.971 71.946,58.621 74.839,56.551 C89.004,46.421 107.155,46.72 121.686,48.863 C118.755,31.325 108.447,18.425 105.465,16.798 C100.897,14.307 78.55,12.883 68.557,21.925 C67.517,22.885 64.427,27.268 62.58,29.887 C59.074,34.86 56.804,38.011 54.862,39.825 C53.324,41.261 51.771,42.442 50.27,43.584 C49.158,44.43 48.109,45.228 47.198,46.036 C46.04,47.062 44.973,48.221 43.995,49.507 C42.213,56.348 41.118,63.357 41.49,70.394 C41.808,76.432 43.305,82.517 46.112,87.841" id="Fill-65" fill="#C7C6C1"></path>
        <path d="M237.371,214.2 C229.522,220.028 219.911,221.361 212.188,222.433 C209.979,222.739 207.466,223.088 204.791,223.088 C202.701,223.088 200.513,222.875 198.294,222.262 C193.571,220.959 189.892,218.161 186.936,215.913 L179.438,210.211 C191.512,223.883 197.173,242.451 188.935,273.372 C188.935,273.372 186.234,244.531 177.038,233.496 C172.746,259.858 149.45,275.797 149.45,275.797 C169.068,237.174 164.144,227.971 161.6,220.39 C159.74,214.843 156.471,209.71 152.135,203.71 C147.112,196.759 141.687,189.978 136.011,183.556 C131.137,178.04 125.323,172.263 119.122,171.923 C101.631,170.963 105.922,188.742 82.626,196.099 L95.013,170.498 C87.926,173.026 75.882,178.933 61.782,167.897 C61.782,167.897 110.827,163.606 114.85,123.748 C104.696,120.078 99.791,116.4 89.983,104.139 C89.983,104.139 121.862,119.465 166.098,105.065 C170.931,103.492 175.638,100.948 178.983,97.563 C180.49,96.039 181.594,94.28 182.21,92.532 C182.41,91.048 182.558,89.627 182.66,88.262 C182.645,88.18 182.634,88.096 182.616,88.015 L182.679,88 C183.696,73.547 179.387,65.517 174.265,59.202 C171.854,59.938 169.431,60.822 166.882,61.753 C161.206,63.824 155.355,65.954 148.92,66.703 C152.448,73.389 157.652,79.195 163.967,83.356 C158.072,84.138 152.147,81.397 147.749,77.394 C144.401,74.346 141.788,70.62 139.377,66.767 C135.501,66.406 131.761,65.665 128.098,64.94 L126.384,64.602 C112.664,61.925 93.661,59.998 76.495,78.39 C46.909,128.109 4.766,137.244 16.568,165.854 C18.448,170.409 21.592,174.862 24.822,178.964 C32.056,188.153 56.239,211.909 66.073,221.848 C66.073,221.848 53.135,221.844 37.6,211.997 C39.838,220.558 41.513,228.556 44.605,236.415 C47.89,244.763 50.955,251.493 54.858,257.793 C66.712,276.933 82.344,286.508 93.724,291.22 C98.874,292.575 104.175,293.284 109.498,293.157 C123.804,292.815 126.766,288.672 143.932,279.476 C130.856,301.08 106.706,314.244 72.569,302.541 C76.659,309.368 82.766,315.002 89.992,318.354 C84.496,319.106 78.893,318.074 73.889,315.718 C73.891,316.678 73.884,317.641 73.871,318.607 C73.654,334.562 70.659,374.457 68.677,400.856 C68.63,401.48 68.584,402.093 68.538,402.703 L134.291,402.703 C139.198,358.346 147.706,300.489 147.706,300.489 C147.706,300.489 147.6,366.21 147.321,402.703 L168.364,402.703 C170.346,352.559 172.846,284.521 172.846,284.521 C172.846,284.521 177.27,353.829 179.383,402.703 L213.783,402.703 C213.655,364.792 213.236,338.958 212.863,320.06 L212.846,319.188 C212.591,306.114 212.368,302.487 208.574,297.475 L199.154,285.027 L214.75,285.685 C224.535,286.101 232.313,274.119 236.078,266.941 C247.117,245.897 253.51,221.182 255.47,191.822 C255.39,191.79 255.311,191.757 255.233,191.723 C252.956,195.199 250.638,198.643 248.264,202.037 C245.136,206.507 241.949,210.802 237.371,214.2 Z" id="Fill-66" fill="#C7C6C1"></path>
        <path d="M174.265,59.202 C171.854,59.938 169.431,60.822 166.882,61.753 C161.206,63.824 155.355,65.954 148.92,66.703 C150.816,70.296 153.2,73.631 155.976,76.597 C164.387,75.447 172.615,73.048 180.516,69.834 C178.934,65.572 176.692,62.193 174.265,59.202" id="Fill-67" fill="#FFFFFE"></path>
        <path d="M265.471,124.153 C262.502,118.01 259.059,112.029 255.24,106.376 C254.139,104.748 253.398,103.404 252.804,102.325 C251.698,100.319 251.582,100.109 249.972,99.161 C248.046,98.025 245.831,97.542 244.041,97.77 C243.68,98.732 243.319,99.67 242.969,100.575 C238.325,112.597 234.311,121.288 229.231,132.29 C225.926,139.445 222.18,147.556 217.577,158.096 C213.634,167.124 209.241,173.573 203.752,178.391 C199.077,182.495 193.513,184.774 188.686,186.463 C184.856,187.803 180.974,188.952 177.052,189.913 L195.843,204.202 C197.995,205.838 200.22,207.53 202.208,208.079 C204.338,208.667 207.3,208.255 210.166,207.858 C216.544,206.974 223.772,205.971 228.6,202.387 C231.412,200.299 233.709,197.173 236.208,193.602 C246.606,178.739 256.06,163.011 264.307,146.855 C266.666,142.234 268.768,137.749 268.59,133.682 C268.467,130.871 267.254,127.84 265.471,124.153" id="Fill-68" fill="#C7C6C1"></path>
        <path d="M181.329,148.893 C179.491,146.44 180.902,136.035 180.476,134.304 C179.868,136.102 179.232,137.936 178.563,139.803 C177.748,142.079 176.784,144.51 175.264,146.863 C169.219,156.217 158.214,158.755 149.303,159.922 C143.844,160.637 138.347,161.101 132.84,161.326 C138.339,164.549 142.985,169.229 147.036,173.813 C148.465,175.429 149.877,177.068 151.273,178.725 C162.38,178.315 173.322,176.251 183.826,172.575 C187.318,171.354 191.263,169.775 194.046,167.333 C195.358,166.181 196.596,164.85 197.782,163.321 C193.183,157.82 186.109,154.734 181.329,148.893" id="Fill-69" fill="#91928E"></path>
        <path d="M162.906,138.877 C163.616,137.778 164.194,136.288 164.711,134.842 C166.884,128.775 168.546,123.597 169.766,119.422 C159.666,123.347 149.161,126.314 138.501,128.226 C136.207,128.636 133.644,129.041 130.929,129.041 C130.297,129.041 129.657,129.018 129.01,128.969 C128.085,134.001 125.93,139.943 122.574,146.738 C130.868,146.869 139.175,146.409 147.393,145.333 C152.711,144.637 160.106,143.21 162.906,138.877" id="Fill-70" fill="#91928E"></path>
        <path d="M68.557,21.925 C67.517,22.885 64.427,27.268 62.58,29.887 C59.074,34.86 56.804,38.011 54.862,39.825 C53.324,41.261 51.771,42.442 50.27,43.584 C49.158,44.43 48.109,45.228 47.198,46.036 C46.04,47.062 44.973,48.221 43.995,49.507 C42.213,56.348 41.118,63.357 41.49,70.394 C41.808,76.432 43.305,82.517 46.112,87.841 C49.879,83.906 53.484,79.977 56.858,75.89 C53.873,64.98 56.245,52.566 63.471,43.823 C64.065,35.94 65.78,28.15 69.298,21.302 C69.046,21.505 68.795,21.709 68.557,21.925" id="Fill-71" fill="#91928E"></path>
        <path d="M163.871,83.29 C163.904,83.312 163.935,83.334 163.967,83.356 C158.072,84.138 152.147,81.397 147.749,77.394 C144.401,74.346 141.788,70.62 139.377,66.767 C138.54,66.689 137.71,66.59 136.885,66.481 C136.254,68.688 136.525,71.251 137.802,73.485 C142.706,80.842 150.063,93.716 139.028,98.008 C125.54,102.299 107.148,91.878 99.791,104.139 C98.359,106.527 105.114,108.171 111.068,109.941 C124.588,112.027 143.765,112.335 166.098,105.065 C170.931,103.492 175.638,100.948 178.983,97.563 C180.49,96.039 181.594,94.28 182.21,92.532 C182.41,91.048 182.558,89.627 182.66,88.262 C182.645,88.18 182.634,88.096 182.616,88.015 L182.679,88 C182.93,84.442 182.856,81.275 182.528,78.425 C177.062,82.305 170.133,84.688 163.871,83.29" id="Fill-72" fill="#91928E"></path>
        <path d="M81.4,259.858 C72.817,253.114 69.138,249.436 65.46,242.079 C60.556,231.043 71.591,226.139 75.882,224.3 C75.882,224.3 67.912,215.717 70.977,210.813 C72.203,208.36 77.108,207.747 80.786,206.521 C90.628,203.24 110.827,181.998 115.118,182.611 C129.832,185.677 159.872,218.169 147.611,260.471 C145.764,266.84 128.606,291.124 81.4,259.858 Z M50.746,188.742 C50.489,187.97 50.016,187.306 49.553,186.614 C61,187.782 72.54,184.371 82.67,179.388 C75.271,190.68 61.454,203.959 50.746,188.742 Z M255.233,191.723 C252.956,195.199 250.638,198.643 248.264,202.037 C245.136,206.507 241.949,210.802 237.371,214.2 C229.522,220.028 219.911,221.361 212.188,222.433 C209.979,222.739 207.466,223.088 204.791,223.088 C202.701,223.088 200.513,222.875 198.294,222.262 C193.571,220.959 189.892,218.161 186.936,215.913 L179.438,210.211 C191.512,223.883 197.173,242.451 188.935,273.372 C188.935,273.372 186.234,244.531 177.038,233.496 C172.746,259.858 149.45,275.797 149.45,275.797 C169.068,237.174 164.144,227.971 161.6,220.39 C159.74,214.843 156.471,209.71 152.135,203.71 C147.112,196.759 141.687,189.978 136.011,183.556 C131.137,178.04 125.323,172.263 119.122,171.923 C113.489,171.614 110.116,173.25 107.352,175.854 C101.535,181.335 98.419,191.111 82.626,196.099 L95.013,170.498 C87.926,173.026 75.882,178.933 61.782,167.897 C61.782,167.897 110.827,163.606 114.85,123.748 C108.568,121.477 104.294,119.201 99.625,114.893 C98.327,113.694 96.993,112.328 95.581,110.772 C98.121,117.498 99.178,125.596 93.048,132.953 C84.232,148.683 67.484,155.936 41.55,166.671 C44.002,172.189 48.907,174.028 59.942,177.707 C52.08,179.334 42.54,179.399 34.29,177.061 C24.374,171.782 17.307,161.613 15.594,150.046 C13.999,154.836 14.123,159.926 16.568,165.854 C18.448,170.409 21.592,174.862 24.822,178.964 C32.056,188.153 56.239,211.909 66.073,221.848 C66.073,221.848 53.135,221.844 37.6,211.997 C39.838,220.558 41.513,228.556 44.605,236.415 C47.89,244.763 50.955,251.493 54.858,257.793 C66.712,276.933 82.344,286.508 93.724,291.22 C98.874,292.575 104.175,293.284 109.498,293.157 C123.804,292.815 126.766,288.672 143.932,279.476 C130.856,301.08 106.706,314.244 72.569,302.541 C76.659,309.368 82.766,315.002 89.992,318.354 C84.496,319.106 78.893,318.074 73.889,315.718 C73.891,316.678 73.884,317.641 73.871,318.607 C73.654,334.562 70.659,374.457 68.677,400.856 C68.63,401.48 68.584,402.093 68.538,402.703 L134.291,402.703 C139.198,358.346 147.706,300.489 147.706,300.489 C147.706,300.489 147.6,366.21 147.321,402.703 L168.364,402.703 C170.346,352.559 172.846,284.521 172.846,284.521 C172.846,284.521 177.27,353.829 179.383,402.703 L213.783,402.703 C213.655,364.792 213.236,338.958 212.863,320.06 L212.846,319.188 C212.591,306.114 212.368,302.487 208.574,297.475 L199.154,285.027 L214.75,285.685 C224.535,286.101 232.313,274.119 236.078,266.941 C247.117,245.897 253.51,221.182 255.47,191.822 C255.39,191.79 255.311,191.757 255.233,191.723 L255.233,191.723 Z" id="Fill-73" fill="#91928E"></path>
        <path d="M213.113,166.882 C210.328,171.55 207.265,175.307 203.752,178.391 C199.077,182.495 193.513,184.774 188.686,186.463 C184.856,187.803 180.974,188.952 177.052,189.913 L195.843,204.202 C197.995,205.838 200.22,207.53 202.208,208.079 C204.338,208.667 207.3,208.255 210.166,207.858 C216.544,206.974 223.772,205.971 228.6,202.387 C229.31,201.859 229.988,201.264 230.644,200.614 C224.59,192.062 217.686,184.301 213.822,174.642 C212.728,172.453 212.855,169.775 213.113,166.882" id="Fill-74" fill="#91928E"></path>
        <path d="M142.865,45.506 C143.732,45.545 144.53,45.542 145.289,45.497 C149.536,45.24 154.388,43.47 159.524,41.597 C162.596,40.476 165.77,39.317 169.173,38.33 C170.165,38.041 172.111,37.476 174.587,37.358 C174.439,36.457 174.267,35.971 174.154,35.728 C173.298,35.289 171.222,34.719 169.936,34.367 L150.808,29.118 C148.125,28.382 144.788,27.467 143.15,27.719 C142.461,27.826 141.109,28.355 138.879,30.443 C140.693,35.406 142.026,40.444 142.865,45.506" id="Fill-75" fill="#FFFFFE"></path>
        <path d="M197.041,151.429 C197.332,150.812 197.623,150.172 197.913,149.507 C202.607,138.762 206.402,130.543 209.75,123.293 C214.673,112.633 218.558,104.221 222.954,92.842 C224.871,87.879 226.852,82.751 226.531,78.917 C226.22,75.192 224.434,71.461 221.631,68.68 C220.16,67.221 218.861,65.878 217.715,64.694 C213.084,59.907 211.379,58.145 206.28,56.27 C205.545,56.275 204.208,56.372 202.397,56.588 C202.18,59.538 201.918,62.46 201.617,65.327 C203.786,72.278 204.626,79.732 204.179,88.033 C204.321,90.961 204.014,93.933 203.265,96.881 L203.241,97.054 C203.141,97.715 202.944,98.351 202.662,98.943 C201.012,104.011 198.116,108.73 194.243,112.648 C193.943,112.952 193.636,113.251 193.319,113.551 C192.108,120.099 189.101,130.35 185.001,141.828 C189.12,144.889 193.14,148.088 197.041,151.429" id="Fill-76" fill="#FFFFFE"></path>
        <path d="M68.092,33.772 C67.498,34.614 66.939,35.407 66.407,36.154 C66.737,36.251 67.062,36.376 67.381,36.527 C70.057,37.794 71.592,40.658 71.168,43.588 C70.811,46.049 70.745,48.548 70.96,51.035 C81.825,43.282 95.574,40.013 112.784,41.127 C109.361,31.136 103.958,24.25 102.121,22.683 C98.187,21.218 80.419,20.473 73.199,26.821 C72.251,27.873 69.24,32.144 68.092,33.772" id="Fill-77" fill="#FFFFFE"></path>
        <path d="M207.078,271.506 C229.149,272.732 234.054,243.918 237.118,226.139 C224.376,230.193 212.726,240.26 199.071,238.258 C200.001,246.064 199.62,254.58 197.949,263.923 C199.644,268.06 202.538,271.203 207.078,271.506" id="Fill-78" fill="#C7C6C1"></path>
        <path d="M180.442,261.927 C179.805,258.625 179.026,255.213 178.112,251.979 C172.12,264.306 163.283,273.11 157.91,277.712 C166.566,274.331 175.43,269.557 180.442,261.927" id="Fill-79" fill="#C7C6C1"></path>
        <path d="M112.035,69.68 C101.9,69.512 91.634,72.32 81.904,82.485 C68.777,104.319 53.529,118.392 41.254,129.72 C30.965,139.215 24.534,145.397 22.243,151.455 C18.867,164.219 39.881,163.727 44.616,156.862 C69.138,121.305 75.882,105.978 86.304,98.008 C86.344,98.026 104.696,80.229 134.737,93.716 C137.802,91.878 134.737,71.646 112.035,69.68" id="Fill-80" fill="#FFFFFE"></path>
        <path d="M143.932,235.335 C142.093,222.46 137.802,211.425 131.058,200.39 C126.766,194.259 119.41,189.355 112.053,193.647 C98.251,202.689 91.098,219.857 77.977,227.661 C70.365,245.144 104.696,232.27 132.897,262.31 C143.932,254.953 145.159,244.531 143.932,235.335" id="Fill-81" fill="#FFFFFE"></path>
        <rect id="Rectangle" fill="#91928E" x="164" y="282.75" width="19" height="120"></rect>
        <rect id="Rectangle" fill="#91928E" x="134" y="300.75" width="19" height="102"></rect>
        <path d="M113.500474,362.878 C113.701474,361.538 113.232474,359.93 111.825474,358.657 C110.753474,357.719 109.480474,356.915 108.006474,356.111 C110.418474,355.039 113.031474,353.833 114.572474,352.627 C116.247474,351.354 117.051474,349.478 117.051474,348.205 C117.051474,347.468 116.649474,347.133 115.979474,347.602 C113.232474,349.411 106.867474,352.292 103.450474,353.431 C102.311474,353.833 102.110474,354.168 102.311474,355.24 C102.646474,357.25 102.981474,358.188 104.187474,358.791 C106.666474,359.997 110.016474,361.672 112.294474,363.347 C112.897474,363.816 113.366474,363.615 113.500474,362.878 Z M117.883684,376.01 C124.583684,365.759 143.611684,346.53 148.904684,340.366 C152.522684,336.145 153.393684,333.13 152.991684,331.187 C152.790684,330.182 152.187684,330.048 151.383684,330.785 C143.678684,338.222 121.769684,362.141 117.749684,369.645 C116.275684,372.392 116.074684,374.469 116.610684,375.876 C116.945684,376.68 117.548684,376.546 117.883684,376.01 Z M169.357316,363.347 C172.506316,361.672 176.727316,360.131 180.010316,358.858 C181.350316,358.322 182.020316,357.451 182.958316,355.441 C183.494316,354.369 183.360316,353.833 182.355316,353.431 C179.206316,352.091 175.253316,349.88 172.506316,347.937 C171.903316,347.468 171.434316,347.602 171.300316,348.473 C171.166316,349.612 171.568316,351.488 173.042316,352.828 C173.913316,353.632 175.454316,354.637 177.129316,355.508 C174.717316,356.379 172.573316,357.317 170.898316,358.523 C169.357316,359.662 168.285316,361.538 168.352316,362.677 C168.419316,363.548 168.620316,363.749 169.357316,363.347 Z" id="&lt;/&gt;" fill="#000000" fill-rule="nonzero"></path>
    </g>
</svg>